<svg version="1.1" xmlns="http://www.w3.org/2000/svg" style="display: block;" viewBox="0 0 2048 2048" width="1024" height="1024" preserveAspectRatio="none">
<rect width="2048" height="2048" rx="364" fill="rgb(16,16,17)"/>
<path transform="translate(0,0)" fill="rgb(239,169,22)" d="M 920.287 1263.15 C 897.354 1240.55 856.742 1209.43 830.898 1188.33 L 675.469 1061.19 C 635.401 1028.46 587.997 994.481 559.436 951.872 C 533.11 912.596 518.523 863.829 518.184 816.692 C 517.626 746.601 545.068 679.186 594.42 629.411 C 606.348 617.355 619.787 606.64 633.289 596.4 C 595.998 652.142 598.963 717.605 637.958 771.288 C 676.076 823.764 731.208 863.277 780.895 904.35 L 1003.95 1087.52 C 1034.36 1112.51 1079.26 1145.7 1102.1 1176.38 C 1154.53 1246.78 1162.66 1334.15 1113.4 1408.83 C 1092.29 1440.83 1043.16 1485.14 1008.24 1501.75 C 1008.26 1500.31 1008.27 1498.82 1009.31 1497.66 C 1044.43 1458.62 1055.85 1410.99 1027.61 1363.15 C 1021.4 1352.69 1014.03 1342.96 1005.63 1334.16 C 996.321 1324.26 929.606 1265.51 920.287 1263.15 z"/>
<path transform="translate(0,0)" fill="rgb(198,144,42)" d="M 1042.04 545.311 L 1042.45 547.561 C 1018.31 578.075 999.63 599.771 1004.93 641.723 C 1011.72 695.508 1057.01 731.097 1097.32 761.626 C 1106.26 768.393 1114.89 779.984 1125.62 783.133 C 1137.08 796.056 1181.81 831.181 1197.14 843.707 L 1340.18 960.79 L 1401.48 1010.84 C 1434.47 1037.83 1462.29 1059.23 1487.09 1094.94 C 1524.03 1149.28 1537.88 1216.06 1525.59 1280.6 C 1513.05 1347.09 1471.33 1413.62 1415.08 1451.76 C 1423.92 1436.53 1430.62 1423.32 1435.41 1406.18 C 1445.34 1369.65 1440.78 1330.7 1422.67 1297.45 C 1394.3 1245.56 1346.14 1208.58 1301.08 1171.88 L 1225.83 1110.23 L 1041.68 958.385 C 998.689 922.429 956.418 894.922 928.652 844.675 C 902.484 798.221 895.87 743.265 910.27 691.929 C 930.07 623.944 982.232 578.386 1042.04 545.311 z"/>
<path transform="translate(0,0)" fill="rgb(198,144,42)" d="M 920.287 1263.15 C 929.606 1265.51 996.321 1324.26 1005.63 1334.16 C 1014.03 1342.96 1021.4 1352.69 1027.61 1363.15 C 1055.85 1410.99 1044.43 1458.62 1009.31 1497.66 C 1008.27 1498.82 1008.26 1500.31 1008.24 1501.75 C 1005.92 1504.46 931.129 1542.46 923.315 1546.54 L 554.265 1738.55 C 550.649 1703.1 547.296 1675.28 553.104 1639.52 C 564.422 1569.83 605.274 1511.81 665.077 1474.98 C 687.156 1461.38 713.777 1448.97 737.215 1436.95 L 848.115 1379.9 C 868.758 1369.31 893.208 1358.45 912.048 1345.7 C 942.751 1324.91 940.892 1289.75 920.287 1263.15 z"/>
<path transform="translate(0,0)" fill="rgb(164,119,32)" d="M 1042.04 545.311 C 1052.11 538.813 1073.75 528.244 1085.27 522.23 L 1171.7 477.433 L 1389.55 363.991 C 1423.13 346.464 1459.5 328.387 1492.49 310.309 C 1494.99 327.464 1497.53 343.179 1498.15 360.541 C 1500.38 414.307 1484.15 467.22 1452.14 510.479 C 1410.44 566.666 1357.2 587.189 1297.38 617.877 L 1187.74 674.348 C 1174.18 681.356 1160.38 688.397 1146.9 695.566 C 1109.44 715.495 1103.3 747.158 1125.62 783.133 C 1114.89 779.984 1106.26 768.393 1097.32 761.626 C 1057.01 731.097 1011.72 695.508 1004.93 641.723 C 999.63 599.771 1018.31 578.075 1042.45 547.561 L 1042.04 545.311 z"/>
<path transform="translate(0,0)" fill="rgb(198,144,42)" d="M 792.593 557.425 C 803.836 556.135 834.853 556.954 847.381 556.957 L 960.526 557.114 C 951.927 564.157 943.709 571.652 935.905 579.567 C 885.4 630.964 865.215 685.319 865.89 756.666 C 837.676 757.333 785.127 756.661 761.487 768.474 C 740.579 781.556 737.442 796.32 735.925 819.092 L 720.871 806.606 C 686.555 777.918 647.07 734.601 643.631 688.395 C 641.398 658.395 651.665 631.446 671.223 608.966 C 702.417 573.113 746.849 560.691 792.593 557.425 z"/>
<path transform="translate(0,0)" fill="rgb(164,119,32)" d="M 1312.12 1228.89 C 1323.55 1236.8 1336.92 1250.52 1347.32 1260.13 C 1403.72 1312.28 1429.4 1386.11 1368.91 1447.47 C 1319.9 1497.19 1248.16 1490.87 1183.25 1490.94 L 1087.42 1490.97 C 1095.99 1484.04 1104.15 1476.62 1111.88 1468.76 C 1162.78 1416.94 1183.53 1362.71 1182.86 1290.95 C 1237.19 1290.3 1308.59 1300.54 1312.12 1228.89 z"/>
</svg>